<svg xmlns="http://www.w3.org/2000/svg" xmlns:xlink="http://www.w3.org/1999/xlink"><defs><style>
    .sprite-symbol-usage {display: none;}
    .sprite-symbol-usage:target {display: inline;}
  </style><symbol viewBox="0 0 24 24" id="eye">
  <path d="M11.6855469,17.8613281 C12.5514323,17.8613281 13.3706055,17.7565104 14.1430664,17.546875 C14.9155273,17.3372396 15.6276042,17.0615234 16.2792969,16.7197266 C16.9309896,16.3779297 17.5143229,16.0019531 18.0292969,15.5917969 C18.5442708,15.1816406 18.9829102,14.7680664 19.3452148,14.3510742 C19.7075195,13.934082 19.9832357,13.5489909 20.1723633,13.1958008 C20.3614909,12.8426107 20.4560547,12.5566406 20.4560547,12.3378906 C20.4560547,12.1191406 20.3614909,11.8343099 20.1723633,11.4833984 C19.9832357,11.132487 19.7075195,10.7485352 19.3452148,10.331543 C18.9829102,9.91455078 18.5431315,9.49983724 18.0258789,9.08740234 C17.5086263,8.67496745 16.9241536,8.29785156 16.2724609,7.95605469 C15.6207682,7.61425781 14.9098307,7.33968099 14.1396484,7.13232422 C13.3694661,6.92496745 12.5514323,6.82128906 11.6855469,6.82128906 C10.828776,6.82128906 10.0164388,6.92496745 9.24853516,7.13232422 C8.48063151,7.33968099 7.77083333,7.61425781 7.11914062,7.95605469 C6.46744792,8.29785156 5.88183594,8.67496745 5.36230469,9.08740234 C4.84277344,9.49983724 4.39957682,9.91455078 4.03271484,10.331543 C3.66585286,10.7485352 3.38557943,11.132487 3.19189453,11.4833984 C2.99820964,11.8343099 2.90136719,12.1191406 2.90136719,12.3378906 C2.90136719,12.5566406 2.99820964,12.8426107 3.19189453,13.1958008 C3.38557943,13.5489909 3.66585286,13.934082 4.03271484,14.3510742 C4.39957682,14.7680664 4.84277344,15.1816406 5.36230469,15.5917969 C5.88183594,16.0019531 6.46744792,16.3779297 7.11914062,16.7197266 C7.77083333,17.0615234 8.48063151,17.3372396 9.24853516,17.546875 C10.0164388,17.7565104 10.828776,17.8613281 11.6855469,17.8613281 Z M11.6855469,15.8994141 C11.0201823,15.8994141 10.4174805,15.7376302 9.87744141,15.4140625 C9.33740234,15.0904948 8.9078776,14.6586914 8.58886719,14.1186523 C8.26985677,13.5786133 8.10807292,12.985026 8.10351562,12.3378906 C8.10351562,11.6770833 8.26302083,11.0777995 8.58203125,10.5400391 C8.90104167,10.0022786 9.33170573,9.57389323 9.87402344,9.25488281 C10.4163411,8.9358724 11.0201823,8.77636719 11.6855469,8.77636719 C12.3417969,8.77636719 12.9410807,8.9358724 13.4833984,9.25488281 C14.0257161,9.57389323 14.4575195,10.0022786 14.7788086,10.5400391 C15.1000977,11.0777995 15.2607422,11.6770833 15.2607422,12.3378906 C15.2607422,12.8255208 15.168457,13.2835286 14.9838867,13.7119141 C14.7993164,14.1402995 14.5429688,14.5185547 14.2148438,14.8466797 C13.8867188,15.1748047 13.5073242,15.4322917 13.0766602,15.6191406 C12.6459961,15.8059896 12.1822917,15.8994141 11.6855469,15.8994141 Z M11.6855469,13.6503906 C12.0455729,13.6503906 12.3554688,13.5216471 12.6152344,13.2641602 C12.875,13.0066732 13.0048828,12.6979167 13.0048828,12.3378906 C13.0048828,11.9778646 12.875,11.6691081 12.6152344,11.4116211 C12.3554688,11.1541341 12.0455729,11.0253906 11.6855469,11.0253906 C11.3209635,11.0253906 11.0087891,11.1541341 10.7490234,11.4116211 C10.4892578,11.6691081 10.359375,11.9778646 10.359375,12.3378906 C10.359375,12.6979167 10.4892578,13.0066732 10.7490234,13.2641602 C11.0087891,13.5216471 11.3209635,13.6503906 11.6855469,13.6503906 Z" />
</symbol><symbol viewBox="0 0 24 24" id="eye-outline">
    <path d="M11.6855469,17.9160156 C12.5651042,17.9160156 13.3933919,17.8100586 14.1704102,17.5981445 C14.9474284,17.3862305 15.6640625,17.1070964 16.3203125,16.7607422 C16.9765625,16.414388 17.5655924,16.0338542 18.0874023,15.6191406 C18.6092122,15.2044271 19.0524089,14.7874349 19.4169922,14.3681641 C19.7815755,13.9488932 20.0607096,13.5603841 20.2543945,13.2026367 C20.4480794,12.8448893 20.5449219,12.5566406 20.5449219,12.3378906 C20.5449219,12.1191406 20.4480794,11.8308919 20.2543945,11.4731445 C20.0607096,11.1153971 19.7815755,10.726888 19.4169922,10.3076172 C19.0524089,9.88834635 18.6092122,9.47021484 18.0874023,9.05322266 C17.5655924,8.63623047 16.9765625,8.25569661 16.3203125,7.91162109 C15.6640625,7.56754557 14.9474284,7.2906901 14.1704102,7.08105469 C13.3933919,6.87141927 12.5651042,6.76660156 11.6855469,6.76660156 C10.8151042,6.76660156 9.99479167,6.87141927 9.22460938,7.08105469 C8.45442708,7.2906901 7.74007161,7.56754557 7.08154297,7.91162109 C6.42301432,8.25569661 5.83170573,8.63623047 5.30761719,9.05322266 C4.78352865,9.47021484 4.33577474,9.88834635 3.96435547,10.3076172 C3.5929362,10.726888 3.30924479,11.1153971 3.11328125,11.4731445 C2.91731771,11.8308919 2.81933594,12.1191406 2.81933594,12.3378906 C2.81933594,12.5566406 2.91731771,12.8448893 3.11328125,13.2026367 C3.30924479,13.5603841 3.59179688,13.9488932 3.9609375,14.3681641 C4.33007812,14.7874349 4.77669271,15.2044271 5.30078125,15.6191406 C5.82486979,16.0338542 6.41617839,16.414388 7.07470703,16.7607422 C7.73323568,17.1070964 8.44873047,17.3862305 9.22119141,17.5981445 C9.99365234,17.8100586 10.8151042,17.9160156 11.6855469,17.9160156 Z M11.6855469,16.7607422 C10.9882812,16.7607422 10.3183594,16.6741536 9.67578125,16.5009766 C9.03320312,16.3277995 8.43164062,16.0999349 7.87109375,15.8173828 C7.31054688,15.5348307 6.80240885,15.2249349 6.34667969,14.8876953 C5.89095052,14.5504557 5.49902344,14.2166341 5.17089844,13.8862305 C4.84277344,13.5558268 4.59098307,13.2527669 4.41552734,12.9770508 C4.24007161,12.7013346 4.15234375,12.4882812 4.15234375,12.3378906 C4.15234375,12.2102865 4.24007161,12.0154622 4.41552734,11.753418 C4.59098307,11.4913737 4.84277344,11.1928711 5.17089844,10.8579102 C5.49902344,10.5229492 5.89095052,10.183431 6.34667969,9.83935547 C6.80240885,9.49527995 7.31054688,9.17854818 7.87109375,8.88916016 C8.43164062,8.59977214 9.03320312,8.36507161 9.67578125,8.18505859 C10.3183594,8.00504557 10.9882812,7.91503906 11.6855469,7.91503906 C12.3782552,7.91503906 13.0458984,8.00504557 13.6884766,8.18505859 C14.3310547,8.36507161 14.9314779,8.59977214 15.4897461,8.88916016 C16.0480143,9.17854818 16.555013,9.49527995 17.0107422,9.83935547 C17.4664714,10.183431 17.8583984,10.5229492 18.1865234,10.8579102 C18.5146484,11.1928711 18.7675781,11.4913737 18.9453125,11.753418 C19.1230469,12.0154622 19.2119141,12.2102865 19.2119141,12.3378906 C19.2119141,12.4882812 19.1230469,12.7013346 18.9453125,12.9770508 C18.7675781,13.2527669 18.5146484,13.5558268 18.1865234,13.8862305 C17.8583984,14.2166341 17.4664714,14.5504557 17.0107422,14.8876953 C16.555013,15.2249349 16.0480143,15.5348307 15.4897461,15.8173828 C14.9314779,16.0999349 14.3310547,16.3277995 13.6884766,16.5009766 C13.0458984,16.6741536 12.3782552,16.7607422 11.6855469,16.7607422 Z M11.6855469,15.8789062 C12.1777344,15.8789062 12.6380208,15.7854818 13.0664062,15.5986328 C13.4947917,15.4117839 13.8719076,15.1554362 14.1977539,14.8295898 C14.5236003,14.5037435 14.7776693,14.1277669 14.9599609,13.7016602 C15.1422526,13.2755534 15.2333984,12.8209635 15.2333984,12.3378906 C15.2333984,11.6816406 15.0738932,11.0857747 14.7548828,10.550293 C14.4358724,10.0148112 14.0086263,9.58984375 13.4731445,9.27539062 C12.9376628,8.9609375 12.3417969,8.80371094 11.6855469,8.80371094 C11.0247396,8.80371094 10.4254557,8.9609375 9.88769531,9.27539062 C9.3499349,9.58984375 8.92154948,10.0148112 8.60253906,10.550293 C8.28352865,11.0857747 8.12630208,11.6816406 8.13085938,12.3378906 C8.13541667,12.9804688 8.2960612,13.5694987 8.61279297,14.1049805 C8.92952474,14.6404622 9.35563151,15.069987 9.89111328,15.3935547 C10.4265951,15.7171224 11.0247396,15.8789062 11.6855469,15.8789062 Z M11.6855469,13.4931641 C11.3619792,13.4931641 11.086263,13.3792318 10.8583984,13.1513672 C10.6305339,12.9235026 10.5166016,12.6523438 10.5166016,12.3378906 C10.5166016,12.0188802 10.6305339,11.746582 10.8583984,11.5209961 C11.086263,11.2954102 11.3619792,11.1826172 11.6855469,11.1826172 C12.0045573,11.1826172 12.2779948,11.2954102 12.5058594,11.5209961 C12.733724,11.746582 12.8476562,12.0188802 12.8476562,12.3378906 C12.8476562,12.6523438 12.733724,12.9235026 12.5058594,13.1513672 C12.2779948,13.3792318 12.0045573,13.4931641 11.6855469,13.4931641 Z" />
</symbol><symbol viewBox="0 0 24 24" id="eye-slash">
  <path d="M17.1064453,18.1587641 C17.2431641,18.1609701 17.3639323,18.1097005 17.46875,18.0048828 C17.5735677,17.8955078 17.6248372,17.7736003 17.6226313,17.6391602 C17.6202799,17.5047201 17.5690104,17.3873698 17.46875,17.2871094 L6.56542969,6.39746094 C6.46972656,6.29720052 6.35123698,6.24707031 6.20996094,6.24707031 C6.0686849,6.24707031 5.94563802,6.29720052 5.84082031,6.39746094 C5.74967448,6.49316406 5.70410156,6.61279297 5.70410156,6.75634766 C5.70410156,6.89990234 5.74967448,7.01953125 5.84082031,7.11523438 L16.7509766,18.0048828 C16.851237,18.1051432 16.9697266,18.1564128 17.1064453,18.1587641 Z M17.3115234,16.1728516 C17.9905599,15.726237 18.5704753,15.2556966 19.0512695,14.7612305 C19.5320638,14.2667643 19.9012044,13.8030599 20.1586914,13.3701172 C20.4161784,12.9371745 20.5449219,12.593099 20.5449219,12.3378906 C20.5449219,12.1191406 20.4480794,11.8308919 20.2543945,11.4731445 C20.0607096,11.1153971 19.7815755,10.726888 19.4169922,10.3076172 C19.0524089,9.88834635 18.6092122,9.47021484 18.0874023,9.05322266 C17.5655924,8.63623047 16.9765625,8.25569661 16.3203125,7.91162109 C15.6640625,7.56754557 14.9474284,7.2906901 14.1704102,7.08105469 C13.3933919,6.87141927 12.5651042,6.76660156 11.6855469,6.76660156 C11.1204427,6.76660156 10.581543,6.81103516 10.0688477,6.89990234 C9.55615234,6.98876953 9.06054688,7.11295573 8.58203125,7.27246094 L9.54589844,8.22949219 C9.88313802,8.13378906 10.2283529,8.05745443 10.581543,8.00048828 C10.9347331,7.94352214 11.3027344,7.91503906 11.6855469,7.91503906 C12.3782552,7.91503906 13.0470378,8.00504557 13.6918945,8.18505859 C14.3367513,8.36507161 14.9383138,8.59977214 15.496582,8.88916016 C16.0548503,9.17854818 16.561849,9.49527995 17.0175781,9.83935547 C17.4733073,10.183431 17.8652344,10.5229492 18.1933594,10.8579102 C18.5214844,11.1928711 18.7732747,11.4913737 18.9487305,11.753418 C19.1241862,12.0154622 19.2119141,12.2102865 19.2119141,12.3378906 C19.2119141,12.5110677 19.0991211,12.7617188 18.8735352,13.0898438 C18.6479492,13.4179688 18.3255208,13.7757161 17.90625,14.1630859 C17.4869792,14.5504557 16.9902344,14.921875 16.4160156,15.2773438 L17.3115234,16.1728516 Z M11.6855469,17.9160156 C12.2825521,17.9160156 12.8544922,17.8658854 13.4013672,17.765625 C13.9482422,17.6653646 14.4746094,17.5309245 14.9804688,17.3623047 L14.0166016,16.4052734 C13.6520182,16.5146484 13.2760417,16.601237 12.8886719,16.6650391 C12.5013021,16.7288411 12.1002604,16.7607422 11.6855469,16.7607422 C10.9882812,16.7607422 10.3183594,16.6741536 9.67578125,16.5009766 C9.03320312,16.3277995 8.43164062,16.0999349 7.87109375,15.8173828 C7.31054688,15.5348307 6.80240885,15.2249349 6.34667969,14.8876953 C5.89095052,14.5504557 5.49902344,14.2166341 5.17089844,13.8862305 C4.84277344,13.5558268 4.59098307,13.2527669 4.41552734,12.9770508 C4.24007161,12.7013346 4.15234375,12.4882812 4.15234375,12.3378906 C4.15234375,12.1920573 4.27197266,11.9516602 4.51123047,11.6166992 C4.75048828,11.2817383 5.09228516,10.9114583 5.53662109,10.5058594 C5.98095703,10.1002604 6.50846354,9.71061198 7.11914062,9.33691406 L6.20996094,8.43457031 C5.49902344,8.8811849 4.890625,9.35742188 4.38476562,9.86328125 C3.87890625,10.3691406 3.49153646,10.843099 3.22265625,11.2851562 C2.95377604,11.7272135 2.81933594,12.078125 2.81933594,12.3378906 C2.81933594,12.5566406 2.91731771,12.8448893 3.11328125,13.2026367 C3.30924479,13.5603841 3.59179688,13.9488932 3.9609375,14.3681641 C4.33007812,14.7874349 4.77669271,15.2044271 5.30078125,15.6191406 C5.82486979,16.0338542 6.41617839,16.414388 7.07470703,16.7607422 C7.73323568,17.1070964 8.44873047,17.3862305 9.22119141,17.5981445 C9.99365234,17.8100586 10.8151042,17.9160156 11.6855469,17.9160156 Z M14.9462891,13.6572266 C15.0374349,13.4567057 15.1080729,13.2447917 15.1582031,13.0214844 C15.2083333,12.7981771 15.2333984,12.5703125 15.2333984,12.3378906 C15.2333984,11.6816406 15.0738932,11.0857747 14.7548828,10.550293 C14.4358724,10.0148112 14.0086263,9.58984375 13.4731445,9.27539062 C12.9376628,8.9609375 12.3417969,8.80371094 11.6855469,8.80371094 C11.4485677,8.80371094 11.2195638,8.8264974 10.9985352,8.87207031 C10.7775065,8.91764323 10.5644531,8.98372396 10.359375,9.0703125 L14.9462891,13.6572266 Z M11.6855469,15.8789062 C11.9544271,15.8789062 12.2107747,15.8492839 12.4545898,15.7900391 C12.6984049,15.7307943 12.9342448,15.6464844 13.1621094,15.5371094 L8.47265625,10.8544922 C8.36328125,11.0732422 8.27897135,11.3079427 8.21972656,11.5585938 C8.16048177,11.8092448 8.13085938,12.0690104 8.13085938,12.3378906 C8.13085938,12.9804688 8.29036458,13.570638 8.609375,14.1083984 C8.92838542,14.6461589 9.35563151,15.0756836 9.89111328,15.3969727 C10.4265951,15.7182617 11.0247396,15.8789062 11.6855469,15.8789062 Z" />
</symbol><symbol viewBox="0 0 24 24" id="grid">
  <path d="M6.68261719,3.78662109 C5.72753906,3.78662109 5.00537109,4.02832031 4.51611328,4.51171875 C4.02685547,4.99511719 3.78222656,5.70849609 3.78222656,6.65185547 L3.78222656,17.3481445 C3.78222656,18.2915039 4.02685547,19.0048828 4.51611328,19.4882812 C5.00537109,19.9716797 5.72753906,20.2133789 6.68261719,20.2133789 L17.3173828,20.2133789 C18.2724609,20.2133789 18.9946289,19.9716797 19.4838867,19.4882812 C19.9731445,19.0048828 20.2177734,18.2915039 20.2177734,17.3481445 L20.2175313,12.8575195 L20.2175313,11.1435195 L20.2177734,6.65185547 C20.2177734,5.70849609 19.9731445,4.99511719 19.4838867,4.51171875 C18.9946289,4.02832031 18.2724609,3.78662109 17.3173828,3.78662109 L11.1386719,3.78662109 L6.68261719,3.78662109 Z M11.1385312,11.1435195 L5.53953125,11.1435195 L5.54003906,6.81005859 C5.54003906,6.38232422 5.64697266,6.06445312 5.86083984,5.85644531 C6.07470703,5.6484375 6.38378906,5.54443359 6.78808594,5.54443359 L11.1385312,5.54451953 L11.1385312,11.1435195 Z M18.4505312,11.1435195 L12.8605313,11.1435195 L12.8605313,5.54451953 L17.203125,5.54443359 C17.6074219,5.54443359 17.9165039,5.6484375 18.1303711,5.85644531 C18.3442383,6.06445312 18.4511719,6.38232422 18.4511719,6.81005859 L18.4505312,11.1435195 Z M11.1385312,18.4565195 L6.78808594,18.4555664 C6.38378906,18.4555664 6.07470703,18.3515625 5.86083984,18.1435547 C5.64697266,17.9355469 5.54003906,17.6176758 5.54003906,17.1899414 L5.53953125,12.8575195 L11.1385312,12.8575195 L11.1385312,18.4565195 Z M17.203125,18.4555664 L12.8605313,18.4565195 L12.8605313,12.8575195 L18.4505312,12.8575195 L18.4511719,17.1899414 C18.4511719,17.6176758 18.3442383,17.9355469 18.1303711,18.1435547 C17.9165039,18.3515625 17.6074219,18.4555664 17.203125,18.4555664 Z" />
</symbol><symbol viewBox="0 0 24 24" id="lines">
  <path d="M20,17 C20.5522847,17 21,17.4477153 21,18 C21,18.5522847 20.5522847,19 20,19 L4,19 C3.44771525,19 3,18.5522847 3,18 C3,17.4477153 3.44771525,17 4,17 L20,17 Z M20,11 C20.5522847,11 21,11.4477153 21,12 C21,12.5522847 20.5522847,13 20,13 L4,13 C3.44771525,13 3,12.5522847 3,12 C3,11.4477153 3.44771525,11 4,11 L20,11 Z M20,5 C20.5522847,5 21,5.44771525 21,6 C21,6.55228475 20.5522847,7 20,7 L4,7 C3.44771525,7 3,6.55228475 3,6 C3,5.44771525 3.44771525,5 4,5 L20,5 Z" />
</symbol><symbol viewBox="0 0 200 30" id="logo">
    <title>Group</title>
    <g id="logo_Page-1" stroke="none" stroke-width="1" fill="none" fill-rule="evenodd">
        <g id="logo_Group">
            <g id="logo_Logo" transform="translate(0.000000, 1.000000)">
                <g id="logo_Group-6" transform="translate(136.204000, 0.000000)">
                    <circle id="logo_Oval" fill="#26C6FA" cx="20" cy="22.5" r="5" />
                    <circle id="logo_Oval" fill="#0FD022" cx="12" cy="5" r="4.5" />
                    <circle id="logo_Oval" fill="#F05C11" cx="4.75" cy="21" r="4.25" />
                    <circle id="logo_Oval" fill="#000000" opacity="0.349999994" cx="8" cy="13.1" r="1.7" />
                    <circle id="logo_Oval" fill="#000000" opacity="0.349999994" cx="16.25" cy="13.5" r="2" />
                </g>
                <path d="M11.488,25.384 C15.808,25.384 18.368,23.848 20.672,21.384 L17.536,18.216 C15.776,19.816 14.208,20.84 11.648,20.84 C7.808,20.84 5.152,17.64 5.152,13.8 L5.152,13.736 C5.152,9.896 7.872,6.76 11.648,6.76 C13.888,6.76 15.648,7.72 17.376,9.288 L20.512,5.672 C18.432,3.624 15.904,2.216 11.68,2.216 C4.8,2.216 -1.42108547e-14,7.432 -1.42108547e-14,13.8 L-1.42108547e-14,13.864 C-1.42108547e-14,20.296 4.896,25.384 11.488,25.384 Z M34.848,25.384 C41.76,25.384 46.784,20.168 46.784,13.8 L46.784,13.736 C46.784,7.368 41.824,2.216 34.912,2.216 C28,2.216 22.976,7.432 22.976,13.8 L22.976,13.864 C22.976,20.232 27.936,25.384 34.848,25.384 Z M34.912,20.84 C30.944,20.84 28.128,17.64 28.128,13.8 L28.128,13.736 C28.128,9.896 30.88,6.76 34.848,6.76 C38.816,6.76 41.632,9.96 41.632,13.8 L41.632,13.864 C41.632,17.704 38.88,20.84 34.912,20.84 Z M66.764,25 L66.764,20.52 L55.596,20.52 L55.596,2.6 L50.668,2.6 L50.668,25 L66.764,25 Z M80.076,25.384 C86.988,25.384 92.012,20.168 92.012,13.8 L92.012,13.736 C92.012,7.368 87.052,2.216 80.14,2.216 C73.228,2.216 68.204,7.432 68.204,13.8 L68.204,13.864 C68.204,20.232 73.164,25.384 80.076,25.384 Z M80.14,20.84 C76.172,20.84 73.356,17.64 73.356,13.8 L73.356,13.736 C73.356,9.896 76.108,6.76 80.076,6.76 C84.044,6.76 86.86,9.96 86.86,13.8 L86.86,13.864 C86.86,17.704 84.108,20.84 80.14,20.84 Z M100.824,25 L100.824,17.832 L104.696,17.832 L109.496,25 L115.256,25 L109.784,17 C112.632,15.944 114.584,13.672 114.584,10.056 L114.584,9.992 C114.584,7.88 113.912,6.12 112.664,4.872 C111.192,3.4 108.984,2.6 106.136,2.6 L95.896,2.6 L95.896,25 L100.824,25 Z M105.816,13.48 L100.824,13.48 L100.824,7.048 L105.72,7.048 C108.12,7.048 109.592,8.136 109.592,10.248 L109.592,10.312 C109.592,12.2 108.216,13.48 105.816,13.48 Z M122.04,25 L122.04,17.096 L127.48,17.096 C132.248,17.096 136.28,14.6 136.28,9.768 L136.28,9.704 C136.28,5.288 132.952,2.6 127.896,2.6 L119.512,2.6 L119.512,25 L122.04,25 Z M127.576,14.792 L122.04,14.792 L122.04,4.936 L127.704,4.936 C131.32,4.936 133.72,6.6 133.72,9.8 L133.72,9.864 C133.72,12.808 131.288,14.792 127.576,14.792 Z M169.568,25 L169.568,4.936 L177.088,4.936 L177.088,2.6 L159.488,2.6 L159.488,4.936 L167.008,4.936 L167.008,25 L169.568,25 Z M184.352,25 L184.352,14.92 L197.28,14.92 L197.28,25 L199.808,25 L199.808,2.6 L197.28,2.6 L197.28,12.552 L184.352,12.552 L184.352,2.6 L181.824,2.6 L181.824,25 L184.352,25 Z" id="logo_COLORPTH" fill="#000000" opacity="0.85" fill-rule="nonzero" />
            </g>
        </g>
    </g>
</symbol><symbol viewBox="0 0 10 15" id="select-dark">
  <path d="M8.53515625,9.69 C8.64583333,9.69 8.74674479,9.71766927 8.83789062,9.77300781 C8.92903646,9.82834635 9.00146484,9.90158854 9.05517578,9.99273437 C9.10888672,10.0838802 9.13574219,10.1847917 9.13574219,10.2954687 C9.13574219,10.4308854 9.09928385,10.5485937 9.02636719,10.6485937 L8.96484375,10.7202734 L5.47851562,14.2798437 C5.41015625,14.3547135 5.33691406,14.4092383 5.25878906,14.443418 C5.18066406,14.4775977 5.09440104,14.4963151 5,14.4995703 C4.85677083,14.4995703 4.72604167,14.4526953 4.6078125,14.3589453 L4.52148438,14.2798437 L1.04003906,10.7202734 C0.984700521,10.6616797 0.94156901,10.5973893 0.910644531,10.5274023 C0.879720052,10.4574154 0.864257812,10.3801042 0.864257812,10.2954687 C0.864257812,10.1847917 0.891113281,10.0838802 0.944824219,9.99273437 C0.998535156,9.90158854 1.07096354,9.82834635 1.16210938,9.77300781 C1.25325521,9.71766927 1.35579427,9.69 1.46972656,9.69 C1.6077474,9.69 1.7280599,9.730625 1.83066406,9.811875 L1.90429688,9.88042969 L5.0015,13.0598984 L8.09570312,9.88042969 C8.18945312,9.77886719 8.30195313,9.71792969 8.43320313,9.69761719 L8.53515625,9.69 Z M5,1.19 C5.09440104,1.19325521 5.18066406,1.21197266 5.25878906,1.24615234 C5.33691406,1.28033203 5.41015625,1.33485677 5.47851562,1.40972656 L5.47851562,1.40972656 L8.96484375,4.96929687 L9.02636719,5.04097656 C9.09928385,5.14097656 9.13574219,5.2586849 9.13574219,5.39410156 C9.13574219,5.50477865 9.10888672,5.6056901 9.05517578,5.69683594 C9.00146484,5.78798177 8.92903646,5.86122396 8.83789062,5.9165625 C8.74674479,5.97190104 8.64583333,5.99957031 8.53515625,5.99957031 L8.53515625,5.99957031 L8.43320313,5.99195312 C8.30195313,5.97164062 8.18945312,5.91070312 8.09570312,5.80914062 L8.09570312,5.80914062 L5.0015,2.62967187 L1.90429688,5.80914062 L1.83066406,5.87769531 C1.7280599,5.95894531 1.6077474,5.99957031 1.46972656,5.99957031 C1.35579427,5.99957031 1.25325521,5.97190104 1.16210938,5.9165625 C1.07096354,5.86122396 0.998535156,5.78798177 0.944824219,5.69683594 C0.891113281,5.6056901 0.864257812,5.50477865 0.864257812,5.39410156 C0.864257812,5.30946615 0.879720052,5.23215495 0.910644531,5.16216797 C0.94156901,5.09218099 0.984700521,5.02789062 1.04003906,4.96929687 L1.04003906,4.96929687 L4.52148438,1.40972656 L4.6078125,1.330625 C4.72604167,1.236875 4.85677083,1.19 5,1.19 Z" id="select-dark_Combined-Shape" fill="#000000" opacity="0.200000003" />
  <path d="M8.53515625,9 C8.64583333,9 8.74674479,9.02766927 8.83789062,9.08300781 C8.92903646,9.13834635 9.00146484,9.21158854 9.05517578,9.30273438 C9.10888672,9.39388021 9.13574219,9.49479167 9.13574219,9.60546875 C9.13574219,9.74088542 9.09928385,9.85859375 9.02636719,9.95859375 L8.96484375,10.0302734 L5.47851562,13.5898438 C5.41015625,13.6647135 5.33691406,13.7192383 5.25878906,13.753418 C5.18066406,13.7875977 5.09440104,13.8063151 5,13.8095703 C4.85677083,13.8095703 4.72604167,13.7626953 4.6078125,13.6689453 L4.52148438,13.5898438 L1.04003906,10.0302734 C0.984700521,9.97167969 0.94156901,9.90738932 0.910644531,9.83740234 C0.879720052,9.76741536 0.864257812,9.69010417 0.864257812,9.60546875 C0.864257812,9.49479167 0.891113281,9.39388021 0.944824219,9.30273438 C0.998535156,9.21158854 1.07096354,9.13834635 1.16210938,9.08300781 C1.25325521,9.02766927 1.35579427,9 1.46972656,9 C1.6077474,9 1.7280599,9.040625 1.83066406,9.121875 L1.90429688,9.19042969 L5.0015,12.3698984 L8.09570312,9.19042969 C8.18945312,9.08886719 8.30195313,9.02792969 8.43320313,9.00761719 L8.53515625,9 Z M5,0.5 C5.09440104,0.503255208 5.18066406,0.521972656 5.25878906,0.556152344 C5.33691406,0.590332031 5.41015625,0.644856771 5.47851562,0.719726562 L5.47851562,0.719726562 L8.96484375,4.27929688 L9.02636719,4.35097656 C9.09928385,4.45097656 9.13574219,4.5686849 9.13574219,4.70410156 C9.13574219,4.81477865 9.10888672,4.9156901 9.05517578,5.00683594 C9.00146484,5.09798177 8.92903646,5.17122396 8.83789062,5.2265625 C8.74674479,5.28190104 8.64583333,5.30957031 8.53515625,5.30957031 L8.53515625,5.30957031 L8.43320313,5.30195313 C8.30195313,5.28164062 8.18945312,5.22070312 8.09570312,5.11914062 L8.09570312,5.11914062 L5.0015,1.93967188 L1.90429688,5.11914062 L1.83066406,5.18769531 C1.7280599,5.26894531 1.6077474,5.30957031 1.46972656,5.30957031 C1.35579427,5.30957031 1.25325521,5.28190104 1.16210938,5.2265625 C1.07096354,5.17122396 0.998535156,5.09798177 0.944824219,5.00683594 C0.891113281,4.9156901 0.864257812,4.81477865 0.864257812,4.70410156 C0.864257812,4.61946615 0.879720052,4.54215495 0.910644531,4.47216797 C0.94156901,4.40218099 0.984700521,4.33789062 1.04003906,4.27929688 L1.04003906,4.27929688 L4.52148438,0.719726562 L4.6078125,0.640625 C4.72604167,0.546875 4.85677083,0.5 5,0.5 Z" id="select-dark_Combined-Shape" fill="#FFFFFF" />
</symbol><symbol viewBox="0 0 10 6" id="select-single">
  <path d="M5.00516934,5.55474071 C4.82244021,5.5548296 4.6589924,5.49622282 4.51461425,5.38173795 L4.42014834,5.29569693 L0.93280277,1.73041541 C0.864072625,1.65767565 0.811363013,1.57910849 0.773441541,1.49328621 C0.733848512,1.40368094 0.714257812,1.30572744 0.714257812,1.20072804 C0.714257812,1.0635786 0.748119342,0.936341337 0.81559345,0.821839821 C0.881899381,0.709320665 0.971998101,0.6182096 1.08426265,0.550048978 C1.19929923,0.480205345 1.32880519,0.445259292 1.46972656,0.445259292 C1.64107717,0.445259292 1.79428575,0.496992059 1.92378479,0.599539524 L2.00650965,0.675904884 L5.0005,3.7508296 L7.98820549,0.68107417 C8.10198925,0.55773144 8.24512882,0.480197503 8.41026195,0.454641186 L8.5239805,0.445676196 C8.67302134,0.445259292 8.80088946,0.480319905 8.91573735,0.550048978 C9.0280019,0.6182096 9.11810062,0.709320665 9.18440655,0.821839821 C9.25188066,0.936341337 9.28574219,1.0635786 9.28574219,1.20072804 C9.28574219,1.36717616 9.23967297,1.51591391 9.14756832,1.64222887 L9.07866654,1.72322804 L5.58567841,5.29006083 C5.50734299,5.37599324 5.41719958,5.44309999 5.31891189,5.48610086 C5.22294471,5.5280865 5.11804236,5.55084833 5.00516934,5.55474071 Z" fill="#000000" />
</symbol><symbol viewBox="0 0 10 6" id="select-single-disabled">
  <path d="M5.00516934,5.55474071 C4.82244021,5.5548296 4.6589924,5.49622282 4.51461425,5.38173795 L4.42014834,5.29569693 L0.93280277,1.73041541 C0.864072625,1.65767565 0.811363013,1.57910849 0.773441541,1.49328621 C0.733848512,1.40368094 0.714257812,1.30572744 0.714257812,1.20072804 C0.714257812,1.0635786 0.748119342,0.936341337 0.81559345,0.821839821 C0.881899381,0.709320665 0.971998101,0.6182096 1.08426265,0.550048978 C1.19929923,0.480205345 1.32880519,0.445259292 1.46972656,0.445259292 C1.64107717,0.445259292 1.79428575,0.496992059 1.92378479,0.599539524 L2.00650965,0.675904884 L5.0005,3.7508296 L7.98820549,0.68107417 C8.10198925,0.55773144 8.24512882,0.480197503 8.41026195,0.454641186 L8.5239805,0.445676196 C8.67302134,0.445259292 8.80088946,0.480319905 8.91573735,0.550048978 C9.0280019,0.6182096 9.11810062,0.709320665 9.18440655,0.821839821 C9.25188066,0.936341337 9.28574219,1.0635786 9.28574219,1.20072804 C9.28574219,1.36717616 9.23967297,1.51591391 9.14756832,1.64222887 L9.07866654,1.72322804 L5.58567841,5.29006083 C5.50734299,5.37599324 5.41719958,5.44309999 5.31891189,5.48610086 C5.22294471,5.5280865 5.11804236,5.55084833 5.00516934,5.55474071 Z" fill="#000000" opacity="0.75" />
</symbol><symbol viewBox="0 0 24 24" id="square">
  <path d="M17.3173828,20.2133789 C18.2724609,20.2133789 18.9946289,19.9716797 19.4838867,19.4882812 C19.9731445,19.0048828 20.2177734,18.2915039 20.2177734,17.3481445 L20.2177734,6.65185547 C20.2177734,5.70849609 19.9731445,4.99511719 19.4838867,4.51171875 C18.9946289,4.02832031 18.2724609,3.78662109 17.3173828,3.78662109 L6.68261719,3.78662109 C5.72753906,3.78662109 5.00537109,4.02832031 4.51611328,4.51171875 C4.02685547,4.99511719 3.78222656,5.70849609 3.78222656,6.65185547 L3.78222656,17.3481445 C3.78222656,18.2915039 4.02685547,19.0048828 4.51611328,19.4882812 C5.00537109,19.9716797 5.72753906,20.2133789 6.68261719,20.2133789 L17.3173828,20.2133789 Z M17.203125,18.4555664 L6.78808594,18.4555664 C6.38378906,18.4555664 6.07470703,18.3515625 5.86083984,18.1435547 C5.64697266,17.9355469 5.54003906,17.6176758 5.54003906,17.1899414 L5.54003906,6.81005859 C5.54003906,6.38232422 5.64697266,6.06445312 5.86083984,5.85644531 C6.07470703,5.6484375 6.38378906,5.54443359 6.78808594,5.54443359 L17.203125,5.54443359 C17.6074219,5.54443359 17.9165039,5.6484375 18.1303711,5.85644531 C18.3442383,6.06445312 18.4511719,6.38232422 18.4511719,6.81005859 L18.4511719,17.1899414 C18.4511719,17.6176758 18.3442383,17.9355469 18.1303711,18.1435547 C17.9165039,18.3515625 17.6074219,18.4555664 17.203125,18.4555664 Z" />
</symbol><symbol viewBox="0 0 24 24" id="swirl">
  <path d="M12.4746094,10.9541016 C12.8789062,10.6845703 13.2172852,10.4077148 13.4897461,10.1235352 C13.762207,9.83935547 14.0068359,9.51855469 14.2236328,9.16113281 C14.7099609,8.32324219 14.925293,7.41650391 14.8696289,6.44091797 C14.8139648,5.46533203 14.4873047,4.45898438 13.8896484,3.421875 C13.5849609,3.34570312 13.2744141,3.28710938 12.9580078,3.24609375 C12.6416016,3.20507812 12.3193359,3.18457031 11.9912109,3.18457031 C10.9716797,3.18457031 9.99902344,3.35302734 9.07324219,3.68994141 C8.14746094,4.02685547 7.3125,4.49414062 6.56835938,5.09179688 C7.69921875,5.21484375 8.69677734,5.53564453 9.56103516,6.05419922 C10.425293,6.57275391 11.1181641,7.28320312 11.6396484,8.18554688 C11.9033203,8.6484375 12.0981445,9.10839844 12.2241211,9.56542969 C12.3500977,10.0224609 12.4335938,10.4853516 12.4746094,10.9541016 Z M15.6035156,12.6416016 C16.5703125,12.6416016 17.4638672,12.3837891 18.2841797,11.8681641 C19.1044922,11.3525391 19.8164062,10.5966797 20.4199219,9.60058594 C20.1855469,8.73925781 19.8266602,7.93652344 19.3432617,7.19238281 C18.8598633,6.44824219 18.2753906,5.79052734 17.5898438,5.21923828 C16.9042969,4.64794922 16.1513672,4.19238281 15.3310547,3.85253906 C15.7705078,4.88378906 15.9799805,5.89453125 15.9594727,6.88476562 C15.9389648,7.875 15.6708984,8.80957031 15.1552734,9.68847656 C14.8564453,10.2158203 14.5180664,10.6538086 14.1401367,11.0024414 C13.762207,11.3510742 13.3623047,11.6630859 12.9404297,11.9384766 C13.3271484,12.1318359 13.734375,12.2973633 14.1621094,12.4350586 C14.5898438,12.5727539 15.0703125,12.6416016 15.6035156,12.6416016 Z M3.29882812,13.3710938 C3.97851562,12.4335938 4.76367188,11.7143555 5.65429688,11.2133789 C6.54492188,10.7124023 7.51171875,10.4619141 8.5546875,10.4619141 C9.09375,10.4619141 9.59326172,10.5219727 10.0532227,10.6420898 C10.5131836,10.762207 10.9599609,10.9248047 11.3935547,11.1298828 C11.3642578,10.6435547 11.2939453,10.2114258 11.1826172,9.83349609 C11.0712891,9.45556641 10.9101562,9.08203125 10.6992188,8.71289062 C10.2011719,7.85742188 9.51123047,7.20996094 8.62939453,6.77050781 C7.74755859,6.33105469 6.69726562,6.1171875 5.47851562,6.12890625 C4.76367188,6.90234375 4.20263672,7.79150391 3.79541016,8.79638672 C3.38818359,9.80126953 3.18457031,10.8691406 3.18457031,12 C3.18457031,12.234375 3.19482422,12.4658203 3.21533203,12.6943359 C3.23583984,12.9228516 3.26367188,13.1484375 3.29882812,13.3710938 Z M18.3544922,18.0205078 C19.1103516,17.2412109 19.7094727,16.3344727 20.1518555,15.300293 C20.5942383,14.2661133 20.8154297,13.1660156 20.8154297,12 C20.8154297,11.6894531 20.7978516,11.3789062 20.7626953,11.0683594 C20.0771484,11.9296875 19.2963867,12.5874023 18.4204102,13.0415039 C17.5444336,13.4956055 16.6054688,13.7226562 15.6035156,13.7226562 C15.0058594,13.7226562 14.4594727,13.6494141 13.9643555,13.5029297 C13.4692383,13.3564453 12.9990234,13.1748047 12.5537109,12.9580078 C12.5830078,13.3564453 12.6503906,13.753418 12.7558594,14.1489258 C12.8613281,14.5444336 13.0341797,14.9501953 13.2744141,15.3662109 C13.7607422,16.2099609 14.4360352,16.855957 15.300293,17.3041992 C16.1645508,17.7524414 17.1826172,17.9912109 18.3544922,18.0205078 Z M8.58105469,20.1123047 C8.14746094,19.0634766 7.94677734,18.0322266 7.97900391,17.0185547 C8.01123047,16.0048828 8.28808594,15.0527344 8.80957031,14.1621094 C9.07910156,13.6933594 9.38085938,13.2890625 9.71484375,12.9492188 C10.0488281,12.609375 10.4091797,12.3046875 10.7958984,12.0351562 C10.4033203,11.859375 10.0297852,11.7333984 9.67529297,11.6572266 C9.32080078,11.5810547 8.94726562,11.5429688 8.5546875,11.5429688 C7.5703125,11.5429688 6.66210938,11.8212891 5.83007812,12.3779297 C4.99804688,12.9345703 4.27734375,13.7548828 3.66796875,14.8388672 C4.07226562,16.0224609 4.70654297,17.0756836 5.57080078,17.9985352 C6.43505859,18.9213867 7.43847656,19.6259766 8.58105469,20.1123047 Z M12,20.8154297 C12.9785156,20.8154297 13.9145508,20.6586914 14.8081055,20.3452148 C15.7016602,20.0317383 16.5146484,19.5996094 17.2470703,19.0488281 C16.1513672,18.890625 15.1845703,18.5449219 14.3466797,18.0117188 C13.5087891,17.4785156 12.8378906,16.7724609 12.3339844,15.8935547 C12.0410156,15.3837891 11.8330078,14.878418 11.7099609,14.3774414 C11.5869141,13.8764648 11.5078125,13.3769531 11.4726562,12.8789062 C11.1386719,13.1074219 10.828125,13.3666992 10.5410156,13.6567383 C10.2539062,13.9467773 9.99023438,14.2939453 9.75,14.6982422 C9.24609375,15.5654297 9.02050781,16.4956055 9.07324219,17.4887695 C9.12597656,18.4819336 9.4453125,19.5058594 10.03125,20.5605469 C10.3476562,20.6425781 10.6699219,20.7055664 10.9980469,20.7495117 C11.3261719,20.793457 11.6601562,20.8154297 12,20.8154297 Z" />
</symbol></defs><use id="eye-usage" xlink:href="#eye" class="sprite-symbol-usage" /><use id="eye-outline-usage" xlink:href="#eye-outline" class="sprite-symbol-usage" /><use id="eye-slash-usage" xlink:href="#eye-slash" class="sprite-symbol-usage" /><use id="grid-usage" xlink:href="#grid" class="sprite-symbol-usage" /><use id="lines-usage" xlink:href="#lines" class="sprite-symbol-usage" /><use id="logo-usage" xlink:href="#logo" class="sprite-symbol-usage" /><use id="select-dark-usage" xlink:href="#select-dark" class="sprite-symbol-usage" /><use id="select-single-usage" xlink:href="#select-single" class="sprite-symbol-usage" /><use id="select-single-disabled-usage" xlink:href="#select-single-disabled" class="sprite-symbol-usage" /><use id="square-usage" xlink:href="#square" class="sprite-symbol-usage" /><use id="swirl-usage" xlink:href="#swirl" class="sprite-symbol-usage" /></svg>